<svg width="150" height="150" viewBox="0 0 150 150" fill="none" xmlns="http://www.w3.org/2000/svg">
<path fill-rule="evenodd" clip-rule="evenodd" d="M45 0C20.1472 0 0 20.1472 0 45V105C0 129.853 20.1472 150 45 150H105C129.853 150 150 129.853 150 105V45C150 20.1472 129.853 0 105 0H45ZM31.5 39C35 38.1667 43.2 38.4 48 46C55.1667 40.1667 72.6 32 85 46C88.6667 41.8334 99.4 35 113 41C117 42.1667 125.2 47.5 126 59.5V110.5H102V66.5C100.333 63.5 95.7 59.3 90.5 66.5V110.5H67V66.5C65 63.3333 60 58.9 56 66.5V110.5H31.5V64C29.3334 64.1667 24.8 63.5 24 59.5C23 54.5 22 42.5 31.5 39Z" fill="white"/>
</svg>
